# xmcd
#
# Track frame offsets:
# 225
# 14241
# 27582
# 45831
# 62119
# 78847
# 91270
# 108374
# 123416
# 135280
# 148706
# 164326
# 176535
# 191842
#
# Disc length: 2867 seconds
#
#
# Revision: 0
# Processed by: cddbd v1.5.1PL2 Copyright (c) Steve Scherf et al.
# Submitted via: FreeRIP 2.944 
#
DISCID=ba0b300e
DTITLE=Mirek Hoffman - Zelenaci
DYEAR=1998
DGENRE=Country
TTITLE0=Mam kovboje cejch
TTITLE1=V busi je domov muj
TTITLE2=Prokletej vuz
TTITLE3=Splacenej dluh
TTITLE4=Nejhezci holku si brat
TTITLE5=Strycek adamita
TTITLE6=Podivny talisman
TTITLE7=Mariana z Poruby
TTITLE8=Zlate hodinky
TTITLE9=Kuchar z Fowler's Bay
TTITLE10=Pomenka a petrklic
TTITLE11=Trapas na Elm street
TTITLE12=Posledni prani
TTITLE13=Byl jsem v country nebi
EXTD=
EXTT0=
EXTT1=
EXTT2=
EXTT3=
EXTT4=
EXTT5=
EXTT6=
EXTT7=
EXTT8=
EXTT9=
EXTT10=
EXTT11=
EXTT12=
EXTT13=
PLAYORDER=
